<svg id="Layer_1" data-name="Layer 1" xmlns="http://www.w3.org/2000/svg" viewBox="0 0 512 512"><title>document-glyph</title><path d="M463.08,112.92,356.42,6.25A21.34,21.34,0,0,0,341.33,0H64A21.33,21.33,0,0,0,42.67,21.33V490.67A21.33,21.33,0,0,0,64,512H448a21.33,21.33,0,0,0,21.33-21.33V128A21.34,21.34,0,0,0,463.08,112.92ZM106.67,149.33a42.71,42.71,0,0,1,42.67-42.67H192a42.71,42.71,0,0,1,42.67,42.67V192A42.71,42.71,0,0,1,192,234.67H149.33A42.71,42.71,0,0,1,106.67,192Zm64,256H128a21.33,21.33,0,0,1,0-42.67h42.67a21.33,21.33,0,0,1,0,42.67Zm213.33,0H256a21.33,21.33,0,0,1,0-42.67H384a21.33,21.33,0,0,1,0,42.67ZM384,320H128a21.33,21.33,0,0,1,0-42.67H384A21.33,21.33,0,0,1,384,320Zm0-128H298.67a21.33,21.33,0,1,1,0-42.67H384A21.33,21.33,0,0,1,384,192Zm-192,0h-42.7V149.33H192Z"/></svg>