<svg id="Layer_1" data-name="Layer 1" xmlns="http://www.w3.org/2000/svg" viewBox="0 0 512 512"><title>id-card-1-glyph</title><path d="M337.92,491.52V512H174.08V491.52a81.92,81.92,0,0,1,163.84,0Zm-51.2-153.6A30.72,30.72,0,1,0,256,368.64,30.75,30.75,0,0,0,286.72,337.92Zm112.64-256H276.48V20.48a20.48,20.48,0,0,0-41,0V81.92H112.64A20.48,20.48,0,0,0,92.16,102.4V491.52A20.48,20.48,0,0,0,112.64,512h20.48V491.52a122.92,122.92,0,0,1,66.73-109.17,71.68,71.68,0,1,1,112.29,0,122.92,122.92,0,0,1,66.73,109.17V512h20.48a20.48,20.48,0,0,0,20.48-20.48V102.4A20.48,20.48,0,0,0,399.36,81.92Z"/></svg>