<svg id="Layer_1" data-name="Layer 1" xmlns="http://www.w3.org/2000/svg" viewBox="0 0 512 512"><title>file-glyph</title><path d="M456.83,128H341.33V12.5Zm12.5,42.67v320A21.33,21.33,0,0,1,448,512H64a21.33,21.33,0,0,1-21.33-21.33V21.33A21.33,21.33,0,0,1,64,0H298.67V149.33A21.33,21.33,0,0,0,320,170.67Zm-128,192A21.33,21.33,0,0,0,320,341.33H192A21.33,21.33,0,0,0,192,384H320A21.33,21.33,0,0,0,341.33,362.67Zm0-85.33A21.33,21.33,0,0,0,320,256H192a21.33,21.33,0,0,0,0,42.67H320A21.33,21.33,0,0,0,341.33,277.33Z"/></svg>