<svg id="Layer_1" data-name="Layer 1" xmlns="http://www.w3.org/2000/svg" viewBox="0 0 512 512"><title>cog-glyph</title><path d="M490.67,192H459.39A211.55,211.55,0,0,0,445,157.47l22.15-22.16a21.33,21.33,0,0,0,0-30.17L406.85,44.81a21.33,21.33,0,0,0-30.17,0L354.54,66.95A211.85,211.85,0,0,0,320,52.6V21.33A21.33,21.33,0,0,0,298.67,0H213.33A21.33,21.33,0,0,0,192,21.33V52.6A211.5,211.5,0,0,0,157.47,67L135.32,44.81a21.33,21.33,0,0,0-30.17,0L44.81,105.16a21.33,21.33,0,0,0,0,30.17L67,157.47A211.53,211.53,0,0,0,52.61,192H21.33A21.33,21.33,0,0,0,0,213.33v85.33A21.33,21.33,0,0,0,21.33,320H52.61A211.53,211.53,0,0,0,67,354.53L44.81,376.68a21.33,21.33,0,0,0,0,30.17l60.34,60.34a21.33,21.33,0,0,0,30.17,0L157.47,445A211.8,211.8,0,0,0,192,459.39v31.28A21.33,21.33,0,0,0,213.33,512h85.33A21.33,21.33,0,0,0,320,490.67V459.39A211.8,211.8,0,0,0,354.53,445l22.15,22.15a21.33,21.33,0,0,0,30.17,0l60.34-60.34a21.33,21.33,0,0,0,0-30.17L445,354.53A211.53,211.53,0,0,0,459.39,320h31.28A21.33,21.33,0,0,0,512,298.67V213.33A21.33,21.33,0,0,0,490.67,192ZM320,256a64,64,0,1,1-64-64A64.07,64.07,0,0,1,320,256Z"/></svg>