<svg id="Layer_1" data-name="Layer 1" xmlns="http://www.w3.org/2000/svg" viewBox="0 0 512 512"><title>layers-glyph</title><path d="M512,256a21.34,21.34,0,0,0-11.12-18.73l-63.44-34.6,63.44-34.6a21.33,21.33,0,0,0,0-37.46L266.21,2.61a21.29,21.29,0,0,0-20.43,0l-234.67,128a21.33,21.33,0,0,0,0,37.46l63.44,34.6-63.44,34.6a21.33,21.33,0,0,0,0,37.46l63.45,34.61-63.45,34.6a21.33,21.33,0,0,0,0,37.46l234.67,128a21.33,21.33,0,0,0,20.43,0l234.67-128a21.33,21.33,0,0,0,0-37.46l-63.45-34.6,63.45-34.61A21.34,21.34,0,0,0,512,256ZM446.11,362.67,256,466.37,65.89,362.67l53.24-29,126.66,69.09a21.33,21.33,0,0,0,20.43,0l126.66-69.09Zm-63-72.29-.14.08L256,359.7,129.1,290.48l-.22-.12L65.89,256l53.23-29,126.67,69.09a21.33,21.33,0,0,0,20.43,0L392.89,227l53.23,29Z"/></svg>