<svg id="Layer_1" data-name="Layer 1" xmlns="http://www.w3.org/2000/svg" viewBox="0 0 512 512"><title>images-glyph</title><path d="M426.67,85.33H64a21.33,21.33,0,0,0-21.33,21.33V384H21.33A21.33,21.33,0,0,1,0,362.67V64A21.33,21.33,0,0,1,21.33,42.67h384A21.33,21.33,0,0,1,426.67,64ZM293.92,312.09A21.35,21.35,0,0,1,277.44,320h86.44l-35.8-50.11Zm-35.67-3.89-5.9-11.79L234.67,320h42.56a19.52,19.52,0,0,1-2.2-.12A21.32,21.32,0,0,1,258.25,308.21ZM512,149.33V448a21.33,21.33,0,0,1-21.33,21.33h-384A21.33,21.33,0,0,1,85.33,448V149.33A21.33,21.33,0,0,1,106.67,128h384A21.33,21.33,0,0,1,512,149.33Zm-89.31,179.6L346.5,222.27a21.34,21.34,0,0,0-33.94-1l-31,38.25-6.52-13a21.34,21.34,0,0,0-17.17-11.71,21.66,21.66,0,0,0-19,8.45l-64,85.33A21.33,21.33,0,0,0,192,362.67H405.33a21.33,21.33,0,0,0,17.36-33.73Z"/></svg>